<?xml version="1.0" standalone="no"?><!DOCTYPE svg PUBLIC "-//W3C//DTD SVG 1.1//EN" "http://www.w3.org/Graphics/SVG/1.1/DTD/svg11.dtd"><svg t="1716034029847" class="icon" viewBox="0 0 1024 1024" version="1.1" xmlns="http://www.w3.org/2000/svg" p-id="4094" xmlns:xlink="http://www.w3.org/1999/xlink" width="32" height="32"><path d="M967.744 86.016C946.24 71.488 921.28 64 896 64c-16.064 0-32.192 3.072-47.552 9.216l-320 128C522.432 203.584 517.504 207.552 512 210.816c-5.504-3.264-10.432-7.232-16.448-9.6l-320-128C160.192 67.072 144.064 64 128 64 102.784 64 77.696 71.488 56.256 86.016 21.056 109.824 0 149.504 0 192l0 576c0 52.288 31.872 99.456 80.448 118.848l320 128C415.808 1020.992 431.936 1024 448 1024c22.4 0 44.224-6.784 64-18.304C531.776 1017.216 553.6 1024 576 1024c16.064 0 32.192-3.008 47.552-9.152l320-128C992.128 867.456 1024 820.288 1024 768L1024 192C1024 149.504 1002.944 109.824 967.744 86.016zM448 896l-320-128L128 192l320 128L448 896zM896 768l-320 128L576 320l320-128L896 768z" fill="#000000" p-id="4095"></path></svg>